<?xml version="1.0" encoding="UTF-8"?>
<svg id="Layer_1" xmlns="http://www.w3.org/2000/svg" version="1.1" viewBox="0 0 612.28 810.71">
  <!-- Generator: Adobe Illustrator 30.1.0, SVG Export Plug-In . SVG Version: 2.1.1 Build 136)  -->
  <defs>
    <style>
      .st0 {
        fill: #231f20;
      }
    </style>
  </defs>
  <polygon class="st0" points="437.82 425.77 437.82 403.67 453.36 403.67 453.36 393.4 432.54 393.4 437.82 388.35 437.82 372.62 459.65 372.62 459.65 362.42 426.27 362.42 426.27 439.12 459.65 439.12 459.65 428.83 437.81 428.83 437.82 425.77"/>
  <polygon class="st0" points="326.04 362.42 293.01 362.42 293.01 441.11 304.56 448.23 304.56 403.65 320.1 403.65 320.1 393.38 299.49 393.38 304.56 388.34 304.56 372.6 326.04 372.6 326.04 362.42"/>
  <path class="st0" d="M191.72,416.67c.04-1.1.15-10.23-8.25-15.82-6.14-4.4-16.71-12.36-16.82-12.44-1.76-1.33-2.66-2.9-2.66-4.66v-6.59c0-2.43,1.98-4.41,4.41-4.41h20.32l-1.86-10.32h-18.46c-8.8,0-15.96,6.17-15.96,15.96v6.31c-.08,2.17.45,7.78,7.31,12.98,2.56,1.93,11.36,8.53,17.16,12.68,2.74,1.83,3.19,4.42,3.26,5.57v8.49c0,2.43-1.98,4.41-4.41,4.41h-21.82l1.37,10.28h20.44c10.4,0,15.96-7.16,15.96-15.96v-6.48h.01Z"/>
  <polygon class="st0" points="226.38 387.4 237.47 362.42 224.35 362.42 207.95 400.61 212.42 378.95 212.42 370.41 212.42 362.42 200.87 362.42 200.87 439.13 212.42 439.13 212.42 415.24 219.15 399.49 231.98 439.13 243.39 439.13 226.38 387.4"/>
  <path class="st0" d="M416.73,394.05v-16.32c0-8.8-7.16-15.96-15.96-15.96h-5.18c-8.8,0-15.96,7.16-15.96,15.96v46.07c0,8.8,7.16,15.96,15.96,15.96h5.18c6.8,0,12.6-4.28,14.9-10.29.68-1.77,1.06-3.68,1.06-5.67v-5.82h-11.55v7.09c0,2.43-1.98,4.41-4.41,4.41h-5.18c-2.43,0-4.41-1.98-4.41-4.41v-48.56c0-2.43,1.98-4.41,4.41-4.41h5.18c2.43,0,4.41,1.98,4.41,4.41v17.55h11.55Z"/>
  <polygon class="st0" points="243.39 362.42 255.61 362.42 265.47 391.96 274.91 362.43 287.17 362.43 271.09 403.41 271.09 441.11 259.54 448.23 259.54 403.41 243.39 362.42"/>
  <path class="st0" d="M339.24,439.11l1.67-10.98.21-1.68h17.27l.19,1.71,1.21,10.95h5.22l6.36-.05-9.67-76.64h-23.17l-10.93,76.69h11.64ZM342.96,411.21l4.35-36.79.2-1.7h5.01l.19,1.72,4.31,39.67.23,2.13h-19.13l4.85-5.04h-.01Z"/>
</svg>